<mxfile host="app.diagrams.net" agent="Mozilla/5.0 (Windows NT 10.0; Win64; x64) AppleWebKit/537.36 (KHTML, like Gecko) Chrome/134.0.0.0 Safari/537.36" version="26.1.1">
  <diagram name="第 1 页" id="s-5QhZZwYBaMaTvDLYHA">
    <mxGraphModel dx="1281" dy="628" grid="1" gridSize="10" guides="1" tooltips="1" connect="1" arrows="1" fold="1" page="1" pageScale="1" pageWidth="827" pageHeight="1169" math="1" shadow="0">
      <root>
        <mxCell id="0" />
        <mxCell id="1" parent="0" />
        <mxCell id="uKrTivx29mjVBT3hBDGl-1" value="" style="rounded=1;whiteSpace=wrap;html=1;fontFamily=Times New Roman;fontSize=11;labelBackgroundColor=default;dashed=1;fillColor=#eeeeee;strokeColor=#9AC7BF;dashPattern=8 8;" vertex="1" parent="1">
          <mxGeometry x="570" y="240.03" width="170" height="108" as="geometry" />
        </mxCell>
        <mxCell id="uKrTivx29mjVBT3hBDGl-2" value="&lt;span&gt;&lt;font&gt;C&lt;/font&gt;&lt;/span&gt;" style="ellipse;whiteSpace=wrap;html=1;aspect=fixed;fontFamily=Times New Roman;fontSize=11;fontColor=default;labelBackgroundColor=none;" vertex="1" parent="1">
          <mxGeometry x="540" y="230" width="14" height="14" as="geometry" />
        </mxCell>
        <mxCell id="uKrTivx29mjVBT3hBDGl-6" value="" style="rounded=1;whiteSpace=wrap;html=1;fontFamily=Times New Roman;fontSize=11;labelBackgroundColor=default;fillColor=#d0cee2;strokeColor=#56517e;" vertex="1" parent="1">
          <mxGeometry x="320" y="285.03" width="140" height="64.97" as="geometry" />
        </mxCell>
        <mxCell id="uKrTivx29mjVBT3hBDGl-9" value="&lt;font style=&quot;font-size: 12px;&quot;&gt;&lt;b&gt;ISA&lt;/b&gt;&lt;/font&gt;" style="text;html=1;align=center;verticalAlign=middle;whiteSpace=wrap;rounded=0;fontFamily=Times New Roman;fontSize=11;fontColor=default;labelBackgroundColor=none;" vertex="1" parent="1">
          <mxGeometry x="508" y="390.0000000000001" width="32" height="23" as="geometry" />
        </mxCell>
        <mxCell id="uKrTivx29mjVBT3hBDGl-69" value="" style="rounded=1;whiteSpace=wrap;html=1;fillColor=#dae8fc;fontFamily=Times New Roman;strokeColor=#6c8ebf;dashed=1;dashPattern=8 8;" vertex="1" parent="1">
          <mxGeometry x="248.78" y="650" width="424.52" height="157.5" as="geometry" />
        </mxCell>
        <mxCell id="uKrTivx29mjVBT3hBDGl-76" style="edgeStyle=orthogonalEdgeStyle;shape=connector;rounded=0;orthogonalLoop=1;jettySize=auto;html=1;entryX=0.5;entryY=0;entryDx=0;entryDy=0;strokeColor=default;align=center;verticalAlign=middle;fontFamily=Helvetica;fontSize=11;fontColor=default;labelBackgroundColor=default;endArrow=classicThin;endFill=1;" edge="1" parent="1" source="uKrTivx29mjVBT3hBDGl-77" target="uKrTivx29mjVBT3hBDGl-108">
          <mxGeometry relative="1" as="geometry">
            <Array as="points">
              <mxPoint x="386.04" y="438.75" />
            </Array>
          </mxGeometry>
        </mxCell>
        <mxCell id="uKrTivx29mjVBT3hBDGl-77" value="" style="rounded=1;whiteSpace=wrap;html=1;fontFamily=Times New Roman;fillColor=#f8cecc;strokeColor=#b85450;horizontal=0;" vertex="1" parent="1">
          <mxGeometry x="292.04" y="413.75" width="20" height="45" as="geometry" />
        </mxCell>
        <mxCell id="uKrTivx29mjVBT3hBDGl-78" style="edgeStyle=orthogonalEdgeStyle;shape=connector;rounded=0;orthogonalLoop=1;jettySize=auto;html=1;entryX=0.5;entryY=0;entryDx=0;entryDy=0;strokeColor=default;align=center;verticalAlign=middle;fontFamily=Times New Roman;fontSize=11;fontColor=default;labelBackgroundColor=default;endArrow=classicThin;endFill=1;" edge="1" parent="1" source="uKrTivx29mjVBT3hBDGl-80" target="uKrTivx29mjVBT3hBDGl-94">
          <mxGeometry relative="1" as="geometry">
            <mxPoint x="348.04" y="503.75" as="targetPoint" />
            <Array as="points">
              <mxPoint x="348.04" y="488.75" />
            </Array>
          </mxGeometry>
        </mxCell>
        <mxCell id="uKrTivx29mjVBT3hBDGl-79" value="&lt;font face=&quot;Times New Roman&quot;&gt;T&lt;/font&gt;" style="edgeLabel;html=1;align=center;verticalAlign=middle;resizable=0;points=[];fontFamily=Helvetica;fontSize=11;fontColor=default;labelBackgroundColor=#DAE8FC;" vertex="1" connectable="0" parent="uKrTivx29mjVBT3hBDGl-78">
          <mxGeometry x="0.2128" relative="1" as="geometry">
            <mxPoint x="-5" y="-1" as="offset" />
          </mxGeometry>
        </mxCell>
        <mxCell id="uKrTivx29mjVBT3hBDGl-80" value="" style="rounded=1;whiteSpace=wrap;html=1;fontFamily=Times New Roman;fillColor=#f8cecc;strokeColor=#b85450;" vertex="1" parent="1">
          <mxGeometry x="292.04" y="466.25" width="20" height="45" as="geometry" />
        </mxCell>
        <mxCell id="uKrTivx29mjVBT3hBDGl-81" style="edgeStyle=orthogonalEdgeStyle;shape=connector;rounded=0;orthogonalLoop=1;jettySize=auto;html=1;entryX=0.5;entryY=1;entryDx=0;entryDy=0;strokeColor=default;align=center;verticalAlign=middle;fontFamily=Times New Roman;fontSize=11;fontColor=default;labelBackgroundColor=default;endArrow=classicThin;endFill=1;" edge="1" parent="1" source="uKrTivx29mjVBT3hBDGl-82" target="uKrTivx29mjVBT3hBDGl-94">
          <mxGeometry relative="1" as="geometry">
            <mxPoint x="348.04" y="523.75" as="targetPoint" />
            <Array as="points">
              <mxPoint x="348.04" y="538.75" />
            </Array>
          </mxGeometry>
        </mxCell>
        <mxCell id="uKrTivx29mjVBT3hBDGl-82" value="" style="rounded=1;whiteSpace=wrap;html=1;fontFamily=Times New Roman;fillColor=#f8cecc;strokeColor=#b85450;" vertex="1" parent="1">
          <mxGeometry x="292.04" y="516.25" width="20" height="45" as="geometry" />
        </mxCell>
        <mxCell id="uKrTivx29mjVBT3hBDGl-83" style="shape=connector;rounded=0;orthogonalLoop=1;jettySize=auto;html=1;entryX=0.5;entryY=1;entryDx=0;entryDy=0;strokeColor=default;align=center;verticalAlign=middle;fontFamily=Helvetica;fontSize=11;fontColor=default;labelBackgroundColor=default;endArrow=classicThin;endFill=1;" edge="1" parent="1" source="uKrTivx29mjVBT3hBDGl-84" target="uKrTivx29mjVBT3hBDGl-108">
          <mxGeometry relative="1" as="geometry" />
        </mxCell>
        <mxCell id="uKrTivx29mjVBT3hBDGl-84" value="Softmax" style="rounded=1;whiteSpace=wrap;html=1;horizontal=0;flipV=0;flipH=0;rotation=-180;fontFamily=Times New Roman;fillColor=#d0cee2;strokeColor=#56517e;spacingTop=-2;fontSize=10;" vertex="1" parent="1">
          <mxGeometry x="378.04" y="485.25" width="18" height="50" as="geometry" />
        </mxCell>
        <mxCell id="uKrTivx29mjVBT3hBDGl-85" style="shape=connector;rounded=0;orthogonalLoop=1;jettySize=auto;html=1;entryX=1;entryY=0.5;entryDx=0;entryDy=0;strokeColor=default;align=center;verticalAlign=middle;fontFamily=Times New Roman;fontSize=11;fontColor=default;labelBackgroundColor=default;endArrow=classicThin;endFill=1;exitX=1;exitY=0.5;exitDx=0;exitDy=0;" edge="1" parent="1" target="uKrTivx29mjVBT3hBDGl-87">
          <mxGeometry relative="1" as="geometry">
            <mxPoint x="395.04" y="460.75" as="sourcePoint" />
            <mxPoint x="416.0399999999836" y="460.75" as="targetPoint" />
            <Array as="points">
              <mxPoint x="420" y="460" />
              <mxPoint x="420" y="486" />
            </Array>
          </mxGeometry>
        </mxCell>
        <mxCell id="uKrTivx29mjVBT3hBDGl-86" style="edgeStyle=orthogonalEdgeStyle;shape=connector;rounded=0;orthogonalLoop=1;jettySize=auto;html=1;entryX=0.5;entryY=0;entryDx=0;entryDy=0;strokeColor=default;align=center;verticalAlign=middle;fontFamily=Times New Roman;fontSize=11;fontColor=default;labelBackgroundColor=default;endArrow=classicThin;endFill=1;" edge="1" parent="1" source="uKrTivx29mjVBT3hBDGl-87" target="uKrTivx29mjVBT3hBDGl-99">
          <mxGeometry relative="1" as="geometry" />
        </mxCell>
        <mxCell id="uKrTivx29mjVBT3hBDGl-87" value="Linear" style="rounded=1;whiteSpace=wrap;html=1;horizontal=0;rotation=-180;fontFamily=Times New Roman;fillColor=#d5e8d4;strokeColor=#82b366;" vertex="1" parent="1">
          <mxGeometry x="442" y="461.75" width="18" height="48" as="geometry" />
        </mxCell>
        <mxCell id="uKrTivx29mjVBT3hBDGl-88" style="edgeStyle=orthogonalEdgeStyle;shape=connector;rounded=0;orthogonalLoop=1;jettySize=auto;html=1;entryX=1;entryY=0.5;entryDx=0;entryDy=0;strokeColor=default;align=center;verticalAlign=middle;fontFamily=Times New Roman;fontSize=11;fontColor=default;labelBackgroundColor=default;endArrow=classicThin;endFill=1;" edge="1" parent="1" target="uKrTivx29mjVBT3hBDGl-90">
          <mxGeometry relative="1" as="geometry">
            <mxPoint x="512.0399906173723" y="488.763698630137" as="sourcePoint" />
          </mxGeometry>
        </mxCell>
        <mxCell id="uKrTivx29mjVBT3hBDGl-89" style="edgeStyle=orthogonalEdgeStyle;shape=connector;rounded=0;orthogonalLoop=1;jettySize=auto;html=1;entryX=1;entryY=0.5;entryDx=0;entryDy=0;strokeColor=default;align=center;verticalAlign=middle;fontFamily=Times New Roman;fontSize=11;fontColor=default;labelBackgroundColor=default;endArrow=classicThin;endFill=1;" edge="1" parent="1" source="uKrTivx29mjVBT3hBDGl-90" target="uKrTivx29mjVBT3hBDGl-92">
          <mxGeometry relative="1" as="geometry" />
        </mxCell>
        <mxCell id="uKrTivx29mjVBT3hBDGl-90" value="LN" style="rounded=1;whiteSpace=wrap;html=1;fontFamily=Times New Roman;horizontal=0;rotation=-180;fillColor=#ffe6cc;strokeColor=#d79b00;" vertex="1" parent="1">
          <mxGeometry x="539.04" y="464.75" width="18" height="48" as="geometry" />
        </mxCell>
        <mxCell id="uKrTivx29mjVBT3hBDGl-91" style="edgeStyle=orthogonalEdgeStyle;shape=connector;rounded=0;orthogonalLoop=1;jettySize=auto;html=1;entryX=0;entryY=0.5;entryDx=0;entryDy=0;strokeColor=default;align=center;verticalAlign=middle;fontFamily=Times New Roman;fontSize=11;fontColor=default;labelBackgroundColor=default;endArrow=classicThin;endFill=1;" edge="1" parent="1">
          <mxGeometry relative="1" as="geometry">
            <mxPoint x="597.04" y="488.75" as="sourcePoint" />
            <mxPoint x="616.520000000003" y="488.75" as="targetPoint" />
          </mxGeometry>
        </mxCell>
        <mxCell id="uKrTivx29mjVBT3hBDGl-92" value="MLP" style="rounded=1;whiteSpace=wrap;html=1;fontFamily=Times New Roman;horizontal=0;rotation=-180;fillColor=#ffe6cc;strokeColor=#d79b00;" vertex="1" parent="1">
          <mxGeometry x="579.04" y="464.75" width="18" height="48" as="geometry" />
        </mxCell>
        <mxCell id="uKrTivx29mjVBT3hBDGl-93" value="" style="group;fontFamily=Times New Roman;" vertex="1" connectable="0" parent="1">
          <mxGeometry x="340.04" y="505.75" width="16" height="16" as="geometry" />
        </mxCell>
        <mxCell id="uKrTivx29mjVBT3hBDGl-94" value="" style="ellipse;whiteSpace=wrap;html=1;aspect=fixed;fontFamily=Times New Roman;" vertex="1" parent="uKrTivx29mjVBT3hBDGl-93">
          <mxGeometry width="16" height="16" as="geometry" />
        </mxCell>
        <mxCell id="uKrTivx29mjVBT3hBDGl-95" value="" style="shape=umlDestroy;whiteSpace=wrap;html=1;strokeWidth=1;targetShapes=umlLifeline;fontFamily=Times New Roman;fontSize=11;fontColor=default;labelBackgroundColor=default;" vertex="1" parent="uKrTivx29mjVBT3hBDGl-93">
          <mxGeometry x="2.0036363636363603" y="2.0036363636363603" width="12" height="12" as="geometry" />
        </mxCell>
        <mxCell id="uKrTivx29mjVBT3hBDGl-98" style="edgeStyle=orthogonalEdgeStyle;shape=connector;rounded=0;orthogonalLoop=1;jettySize=auto;html=1;entryX=0.5;entryY=0;entryDx=0;entryDy=0;strokeColor=default;align=center;verticalAlign=middle;fontFamily=Times New Roman;fontSize=11;fontColor=default;labelBackgroundColor=default;endArrow=classicThin;endFill=1;" edge="1" parent="1" source="uKrTivx29mjVBT3hBDGl-99" target="uKrTivx29mjVBT3hBDGl-101">
          <mxGeometry relative="1" as="geometry">
            <Array as="points">
              <mxPoint x="522.04" y="488.75" />
              <mxPoint x="522.04" y="460.75" />
              <mxPoint x="624.04" y="460.75" />
            </Array>
          </mxGeometry>
        </mxCell>
        <mxCell id="uKrTivx29mjVBT3hBDGl-99" value="" style="ellipse;whiteSpace=wrap;html=1;aspect=fixed;container=0;fontFamily=Times New Roman;" vertex="1" parent="1">
          <mxGeometry x="496.52000000000004" y="480.75" width="16" height="16" as="geometry" />
        </mxCell>
        <mxCell id="uKrTivx29mjVBT3hBDGl-100" value="" style="shape=umlDestroy;whiteSpace=wrap;html=1;strokeWidth=1;targetShapes=umlLifeline;fontFamily=Times New Roman;fontSize=11;fontColor=default;labelBackgroundColor=default;container=0;rotation=45;" vertex="1" parent="1">
          <mxGeometry x="498.5236363636364" y="482.75" width="12" height="12" as="geometry" />
        </mxCell>
        <mxCell id="uKrTivx29mjVBT3hBDGl-101" value="" style="ellipse;whiteSpace=wrap;html=1;aspect=fixed;container=0;fontFamily=Times New Roman;" vertex="1" parent="1">
          <mxGeometry x="616.52" y="480.75" width="16" height="16" as="geometry" />
        </mxCell>
        <mxCell id="uKrTivx29mjVBT3hBDGl-102" value="" style="shape=umlDestroy;whiteSpace=wrap;html=1;strokeWidth=1;targetShapes=umlLifeline;fontFamily=Times New Roman;fontSize=11;fontColor=default;labelBackgroundColor=default;container=0;rotation=45;" vertex="1" parent="1">
          <mxGeometry x="618.5236363636363" y="482.75363636363636" width="12" height="12" as="geometry" />
        </mxCell>
        <mxCell id="uKrTivx29mjVBT3hBDGl-103" style="edgeStyle=orthogonalEdgeStyle;shape=connector;rounded=0;orthogonalLoop=1;jettySize=auto;html=1;entryX=1;entryY=0.5;entryDx=0;entryDy=0;strokeColor=default;align=center;verticalAlign=middle;fontFamily=Times New Roman;fontSize=11;fontColor=default;labelBackgroundColor=default;endArrow=classicThin;endFill=1;" edge="1" parent="1">
          <mxGeometry relative="1" as="geometry">
            <mxPoint x="356.0436363636364" y="513.75" as="sourcePoint" />
            <mxPoint x="378.04" y="513.75" as="targetPoint" />
          </mxGeometry>
        </mxCell>
        <mxCell id="uKrTivx29mjVBT3hBDGl-105" style="edgeStyle=orthogonalEdgeStyle;shape=connector;rounded=0;orthogonalLoop=1;jettySize=auto;html=1;entryX=0;entryY=0.5;entryDx=0;entryDy=0;strokeColor=default;align=center;verticalAlign=middle;fontFamily=Times New Roman;fontSize=11;fontColor=default;labelBackgroundColor=default;endArrow=classicThin;endFill=1;" edge="1" parent="1">
          <mxGeometry relative="1" as="geometry">
            <mxPoint x="631.04" y="488.75" as="sourcePoint" />
            <mxPoint x="650.520000000003" y="488.75" as="targetPoint" />
          </mxGeometry>
        </mxCell>
        <mxCell id="uKrTivx29mjVBT3hBDGl-107" value="" style="group;fontFamily=Times New Roman;" vertex="1" connectable="0" parent="1">
          <mxGeometry x="378.0383549893978" y="451.7783549893977" width="18.48164501060222" height="18.48164501060222" as="geometry" />
        </mxCell>
        <mxCell id="uKrTivx29mjVBT3hBDGl-108" value="" style="ellipse;whiteSpace=wrap;html=1;aspect=fixed;container=0;fontFamily=Times New Roman;" vertex="1" parent="uKrTivx29mjVBT3hBDGl-107">
          <mxGeometry x="0.48164501060222165" y="0.48164501060222165" width="16" height="16" as="geometry" />
        </mxCell>
        <mxCell id="uKrTivx29mjVBT3hBDGl-109" value="" style="shape=waypoint;sketch=0;fillStyle=solid;size=6;pointerEvents=1;points=[];fillColor=none;resizable=0;rotatable=0;perimeter=centerPerimeter;snapToPoint=1;fontFamily=Times New Roman;fontSize=11;fontColor=default;labelBackgroundColor=default;strokeWidth=0.1;" vertex="1" parent="uKrTivx29mjVBT3hBDGl-107">
          <mxGeometry x="-1.5183549893977784" y="-1.5183549893977784" width="20" height="20" as="geometry" />
        </mxCell>
        <mxCell id="uKrTivx29mjVBT3hBDGl-111" value="" style="group" vertex="1" connectable="0" parent="1">
          <mxGeometry x="292.04" y="410.75" width="20" height="51" as="geometry" />
        </mxCell>
        <mxCell id="uKrTivx29mjVBT3hBDGl-112" value="&lt;span style=&quot;font-family: &amp;quot;Times New Roman&amp;quot;;&quot;&gt;$$1\times1$$&lt;/span&gt;" style="text;html=1;align=center;verticalAlign=middle;whiteSpace=wrap;rounded=0;fontFamily=Helvetica;fontSize=8;fontColor=default;labelBackgroundColor=none;rotation=-90;" vertex="1" parent="uKrTivx29mjVBT3hBDGl-111">
          <mxGeometry x="-5" y="26" width="30" height="20" as="geometry" />
        </mxCell>
        <mxCell id="uKrTivx29mjVBT3hBDGl-113" value="Conv" style="text;html=1;align=center;verticalAlign=middle;whiteSpace=wrap;rounded=0;fontFamily=Times New Roman;fontSize=9;fontColor=default;labelBackgroundColor=none;rotation=-90;" vertex="1" parent="uKrTivx29mjVBT3hBDGl-111">
          <mxGeometry x="-5" y="5" width="30" height="20" as="geometry" />
        </mxCell>
        <mxCell id="uKrTivx29mjVBT3hBDGl-114" value="" style="group" vertex="1" connectable="0" parent="1">
          <mxGeometry x="292.04" y="463.75" width="20" height="51" as="geometry" />
        </mxCell>
        <mxCell id="uKrTivx29mjVBT3hBDGl-115" value="&lt;span style=&quot;font-family: &amp;quot;Times New Roman&amp;quot;;&quot;&gt;$$1\times1$$&lt;/span&gt;" style="text;html=1;align=center;verticalAlign=middle;whiteSpace=wrap;rounded=0;fontFamily=Helvetica;fontSize=8;fontColor=default;labelBackgroundColor=none;rotation=-90;" vertex="1" parent="uKrTivx29mjVBT3hBDGl-114">
          <mxGeometry x="-5" y="26" width="30" height="20" as="geometry" />
        </mxCell>
        <mxCell id="uKrTivx29mjVBT3hBDGl-116" value="Conv" style="text;html=1;align=center;verticalAlign=middle;whiteSpace=wrap;rounded=0;fontFamily=Times New Roman;fontSize=9;fontColor=default;labelBackgroundColor=none;rotation=-90;" vertex="1" parent="uKrTivx29mjVBT3hBDGl-114">
          <mxGeometry x="-5" y="5" width="30" height="20" as="geometry" />
        </mxCell>
        <mxCell id="uKrTivx29mjVBT3hBDGl-117" value="" style="group" vertex="1" connectable="0" parent="1">
          <mxGeometry x="292.04" y="513.25" width="20" height="51" as="geometry" />
        </mxCell>
        <mxCell id="uKrTivx29mjVBT3hBDGl-118" value="&lt;span style=&quot;font-family: &amp;quot;Times New Roman&amp;quot;;&quot;&gt;$$1\times1$$&lt;/span&gt;" style="text;html=1;align=center;verticalAlign=middle;whiteSpace=wrap;rounded=0;fontFamily=Helvetica;fontSize=8;fontColor=default;labelBackgroundColor=none;rotation=-90;" vertex="1" parent="uKrTivx29mjVBT3hBDGl-117">
          <mxGeometry x="-5" y="26" width="30" height="20" as="geometry" />
        </mxCell>
        <mxCell id="uKrTivx29mjVBT3hBDGl-119" value="Conv" style="text;html=1;align=center;verticalAlign=middle;whiteSpace=wrap;rounded=0;fontFamily=Times New Roman;fontSize=9;fontColor=default;labelBackgroundColor=none;rotation=-90;" vertex="1" parent="uKrTivx29mjVBT3hBDGl-117">
          <mxGeometry x="-5" y="5" width="30" height="20" as="geometry" />
        </mxCell>
        <mxCell id="uKrTivx29mjVBT3hBDGl-127" style="edgeStyle=orthogonalEdgeStyle;rounded=0;orthogonalLoop=1;jettySize=auto;html=1;entryX=0.25;entryY=0;entryDx=0;entryDy=0;" edge="1" parent="1" source="uKrTivx29mjVBT3hBDGl-126" target="uKrTivx29mjVBT3hBDGl-113">
          <mxGeometry relative="1" as="geometry">
            <Array as="points">
              <mxPoint x="270" y="489" />
              <mxPoint x="270" y="433" />
            </Array>
          </mxGeometry>
        </mxCell>
        <mxCell id="uKrTivx29mjVBT3hBDGl-128" style="edgeStyle=orthogonalEdgeStyle;rounded=0;orthogonalLoop=1;jettySize=auto;html=1;entryX=0;entryY=0.5;entryDx=0;entryDy=0;" edge="1" parent="1" source="uKrTivx29mjVBT3hBDGl-126" target="uKrTivx29mjVBT3hBDGl-80">
          <mxGeometry relative="1" as="geometry" />
        </mxCell>
        <mxCell id="uKrTivx29mjVBT3hBDGl-129" style="edgeStyle=orthogonalEdgeStyle;rounded=0;orthogonalLoop=1;jettySize=auto;html=1;entryX=0.25;entryY=0;entryDx=0;entryDy=0;" edge="1" parent="1" source="uKrTivx29mjVBT3hBDGl-126" target="uKrTivx29mjVBT3hBDGl-119">
          <mxGeometry relative="1" as="geometry">
            <Array as="points">
              <mxPoint x="270" y="489" />
              <mxPoint x="270" y="536" />
            </Array>
          </mxGeometry>
        </mxCell>
        <mxCell id="uKrTivx29mjVBT3hBDGl-126" value="&lt;span style=&quot;font-weight: normal;&quot;&gt;$$S_{i}$$&lt;/span&gt;" style="ellipse;whiteSpace=wrap;html=1;aspect=fixed;fontFamily=Times New Roman;fontStyle=1;fontSize=13;" vertex="1" parent="1">
          <mxGeometry x="230" y="473.75" width="30" height="30" as="geometry" />
        </mxCell>
        <mxCell id="uKrTivx29mjVBT3hBDGl-130" value="&lt;span style=&quot;font-size: 13px;&quot;&gt;$$Q_{i}^{rgb}$$&lt;/span&gt;" style="text;html=1;align=center;verticalAlign=middle;whiteSpace=wrap;rounded=0;fontFamily=Times New Roman;fontSize=11;fontColor=default;labelBackgroundColor=none;" vertex="1" parent="1">
          <mxGeometry x="320" y="516.25" width="16" height="20" as="geometry" />
        </mxCell>
        <mxCell id="uKrTivx29mjVBT3hBDGl-131" value="&lt;span style=&quot;font-size: 13px;&quot;&gt;$$K_{i}^{ir}$$&lt;/span&gt;" style="text;html=1;align=center;verticalAlign=middle;whiteSpace=wrap;rounded=0;fontFamily=Times New Roman;fontSize=11;fontColor=default;labelBackgroundColor=none;" vertex="1" parent="1">
          <mxGeometry x="320" y="470.26" width="16" height="20" as="geometry" />
        </mxCell>
        <mxCell id="uKrTivx29mjVBT3hBDGl-132" value="&lt;span style=&quot;font-size: 13px;&quot;&gt;$$V_{i}^{ir}$$&lt;/span&gt;" style="text;html=1;align=center;verticalAlign=middle;whiteSpace=wrap;rounded=0;fontFamily=Times New Roman;fontSize=11;fontColor=default;labelBackgroundColor=none;" vertex="1" parent="1">
          <mxGeometry x="283" y="286" width="16" height="20" as="geometry" />
        </mxCell>
        <mxCell id="uKrTivx29mjVBT3hBDGl-134" style="edgeStyle=orthogonalEdgeStyle;rounded=0;orthogonalLoop=1;jettySize=auto;html=1;entryX=0.004;entryY=0.045;entryDx=0;entryDy=0;entryPerimeter=0;" edge="1" parent="1" source="uKrTivx29mjVBT3hBDGl-113" target="uKrTivx29mjVBT3hBDGl-100">
          <mxGeometry relative="1" as="geometry" />
        </mxCell>
      </root>
    </mxGraphModel>
  </diagram>
</mxfile>
